<svg xmlns="http://www.w3.org/2000/svg" viewBox="0 0 128 128"><rect width="128" height="128" rx="22" fill="#123D23"/><circle cx="64" cy="63" r="35" fill="#F5E7C8" opacity=".10"/><path d="M32 92h64l-7 18H39l-7-18Z" fill="#D4A017"/><path d="M39 88 29 43l25 18 10-34 10 34 25-18-10 45H39Z" fill="#F5E7C8"/><circle cx="64" cy="26" r="7" fill="#D4A017"/><path d="M64 51c-19 12-25 26-18 43 12-4 20-12 24-24 7 10 18 16 32 17-4-18-16-30-38-36Z" fill="#4CAF50"/><path d="M64 51c-5 15-5 29 0 43" fill="none" stroke="#123D23" stroke-width="5" stroke-linecap="round"/><path d="M47 93h34" stroke="#123D23" stroke-width="5" stroke-linecap="round"/></svg>