<svg xmlns="http://www.w3.org/2000/svg" viewBox="0 0 128 128"><rect width="128" height="128" rx="22" fill="#123D23"/><circle cx="64" cy="64" r="36" fill="#F5E7C8" opacity=".08"/><rect x="34" y="40" width="60" height="60" rx="7" fill="#F5E7C8"/><rect x="28" y="26" width="72" height="18" rx="4" fill="#F5E7C8"/><rect x="39" y="101" width="50" height="13" fill="#D4A017"/><path d="M42 55h44M42 72h44M42 89h44" stroke="#D4A017" stroke-width="5" stroke-linecap="round"/><path d="M51 37h8v-9h10v9h8v-9h10v9" fill="none" stroke="#123D23" stroke-width="5" stroke-linecap="round"/><path d="M64 56c-9 7-12 15-8 24 6-2 10-7 12-14 4 6 10 9 18 9-2-10-9-16-22-19Z" fill="#4CAF50"/></svg>