<svg xmlns="http://www.w3.org/2000/svg" viewBox="0 0 128 128"><rect width="128" height="128" rx="22" fill="#123D23"/><circle cx="64" cy="64" r="35" fill="#F5E7C8" opacity=".08"/><path d="M36 101h58l-6 13H42l-6-13Z" fill="#D4A017"/><path d="M41 93c2-32 17-56 43-72l19 18-12 10 10 16-14 28H41Z" fill="#F5E7C8"/><circle cx="78" cy="42" r="5" fill="#123D23"/><path d="M38 84c18-5 34-15 48-31" fill="none" stroke="#D4A017" stroke-width="6" stroke-linecap="round"/><path d="M35 76c12-12 24-16 37-12" fill="none" stroke="#123D23" stroke-width="5" stroke-linecap="round"/><path d="M50 60c-10-5-17-4-22 4 8 5 15 4 22-4Z" fill="#4CAF50"/><path d="M88 61c9-7 17-7 23-1-7 7-15 8-23 1Z" fill="#4CAF50"/><path d="M93 38 108 27" stroke="#D4A017" stroke-width="5" stroke-linecap="round"/></svg>