<svg xmlns="http://www.w3.org/2000/svg" viewBox="0 0 128 128"><rect width="128" height="128" rx="22" fill="#123D23"/><circle cx="64" cy="64" r="38" fill="#F5E7C8" opacity=".10"/><path d="M34 102h60l-6 12H40l-6-12Z" fill="#D4A017"/><path d="M64 18c-28 19-38 44-29 74 18-5 31-16 38-34 12 16 29 24 52 25-5-30-25-52-61-65Z" fill="#4CAF50"/><path d="M64 19c-8 28-8 53 0 78" fill="none" stroke="#F5E7C8" stroke-width="7" stroke-linecap="round"/><path d="M42 47c14 1 26 6 36 17M86 47c-13 1-24 6-33 17" fill="none" stroke="#123D23" stroke-width="4" stroke-linecap="round"/><circle cx="64" cy="20" r="6" fill="#D4A017"/></svg>