<svg xmlns="http://www.w3.org/2000/svg" viewBox="0 0 128 128">
  <title>Light Grow Tower rook</title>
  <g stroke="#123D23" stroke-width="4" stroke-linecap="round" stroke-linejoin="round">
    <path fill="#F5E7C8" d="M25 108h78l-7-15H32z"/>
    <path fill="#F5E7C8" d="M35 24h58v69H35z"/>
    <path fill="#D4A017" d="M29 16h70v13H29z"/>
    <path d="M41 45h46M41 67h46M41 89h46" fill="none" stroke="#D4A017"/>
    <path fill="#2E7D32" d="M51 43c-7-6-13-6-18 0 6 6 12 6 18 0zm0 22c-7-6-13-6-18 0 6 6 12 6 18 0zm26-22c7-6 13-6 18 0-6 6-12 6-18 0zm0 22c7-6 13-6 18 0-6 6-12 6-18 0z"/>
    <path d="M64 31v56M52 83h24" fill="none" stroke="#2E7D32"/>
  </g>
</svg>
