<svg xmlns="http://www.w3.org/2000/svg" viewBox="0 0 128 128"><rect width="128" height="128" rx="22" fill="#F5E7C8"/><circle cx="64" cy="63" r="35" fill="#123D23" opacity=".08"/><path d="M38 101h52l-5 13H43l-5-13Z" fill="#D4A017"/><ellipse cx="64" cy="59" rx="23" ry="35" fill="#123D23"/><path d="M48 87c25-21 25-45 0-66M80 87c-25-21-25-45 0-66" fill="none" stroke="#F5E7C8" stroke-width="5" stroke-linecap="round"/><path d="M50 37h28M49 52h30M50 67h28" stroke="#D4A017" stroke-width="4" stroke-linecap="round"/><circle cx="64" cy="22" r="8" fill="#D4A017"/><path d="M64 36c-9 6-12 13-9 21 6-2 10-6 12-12 4 5 9 8 16 8-2-9-8-15-19-17Z" fill="#2E7D32"/></svg>