<svg xmlns="http://www.w3.org/2000/svg" viewBox="0 0 128 128">
  <title>Light Breeder bishop</title>
  <g stroke="#123D23" stroke-width="4" stroke-linecap="round" stroke-linejoin="round">
    <path fill="#F5E7C8" d="M31 108h66l-7-16H38z"/>
    <path fill="#F5E7C8" d="M43 92c-2-21 6-35 21-45 15 10 23 24 21 45z"/>
    <path fill="#F5E7C8" d="M64 12c-15 13-22 25-20 37h40c2-12-5-24-20-37z"/>
    <path d="M53 28c17 9 17 21 0 30s-17 21 0 30m22-60c-17 9-17 21 0 30s17 21 0 30M53 38h22M51 58h26M53 78h22" fill="none" stroke="#2E7D32"/>
    <path fill="#2E7D32" d="M64 12c-7 4-10 9-8 15 5-1 8-4 10-8 3 3 7 5 12 4-2-6-6-9-14-11z"/>
    <circle cx="43" cy="68" r="3" fill="#D4A017" stroke="none"/>
    <circle cx="87" cy="61" r="3" fill="#D4A017" stroke="none"/>
  </g>
</svg>
